<svg id="Groupe_43" data-name="Groupe 43" xmlns="http://www.w3.org/2000/svg" xmlns:xlink="http://www.w3.org/1999/xlink" width="48.381" height="85.697" viewBox="0 0 48.381 85.697">
  <defs>
    <clipPath id="clip-path">
      <rect id="Rectangle_14" data-name="Rectangle 14" width="48.381" height="85.697" fill="none"/>
    </clipPath>
  </defs>
  <g id="Groupe_42" data-name="Groupe 42" clip-path="url(#clip-path)">
    <path id="Tracé_49" data-name="Tracé 49" d="M68.841,146.9a3.214,3.214,0,0,0-.649-.936,2.682,2.682,0,0,0,.649.936" transform="translate(-30.214 -64.673)" fill="#f8c4a5"/>
    <path id="Tracé_50" data-name="Tracé 50" d="M68.181,145.951l-.006,0,.009.011Z" transform="translate(-30.206 -64.665)" fill="#f8c4a5"/>
    <path id="Tracé_51" data-name="Tracé 51" d="M60.158,5.186l-.253.292a2.961,2.961,0,0,0,.253-.292" transform="translate(-26.542 -2.298)" fill="#f8c4a5"/>
    <path id="Tracé_52" data-name="Tracé 52" d="M41.424,66.177l-.23.022c-.366-.929.132-.363-.255-1.2-.444-.222-.466-1.457-.733-1.7.026,0-.109-.432-.006-.435-.206-.079-.189-.426-.317-.684-.074-.085-.03.089-.051.176-.089-.2-.16-.406-.241-.609-.017-.262.062-.35.156-.089-.1-.415-.322-1.215-.557-2.22-.2-1.013-.5-2.213-.681-3.44-.448-2.439-.633-4.923-.745-5.828-.109.244.026.8-.158,1.031-.154-.473-.021-.714-.158-.918.28-.207-.019-1.067.288-1.449l-.175-.13.1-.244c-.126-1.056-.153-1.179-.15-1.27s.019-.153.061-1.093a14.171,14.171,0,0,1-.121-2.219c-.008.09-.129.326-.154.041.154-.041-.058-.761.1-.89,0-.278.076-1.176-.148-.888.1-.146.224-.942.264-.458a3.354,3.354,0,0,0,.075-.725l-.1.34a8.052,8.052,0,0,0,.173-2.008l-.119.326a1.761,1.761,0,0,1,.345-1.186l-.03.564a14.461,14.461,0,0,0,.233-2.206l-.049.266c-.005-.124,0-.31.013-.545l.1-.822c.091-.62.177-1.373.318-2.113s.287-1.479.392-2.094a11.421,11.421,0,0,0,.225-1.325l-.276.35.107-.782c-.03.088.376.512.3.569.06-.2.152-.5.267-.88s.257-.838.442-1.337.375-1.055.58-1.632c.221-.571.473-1.16.715-1.751l.368-.881.4-.842.742-1.546c.5-.923.9-1.645,1.107-1.968.368-.5.27.026.289.043.318-.679.017-.362.353-.9.114-.135.088.094.057.188.128-.248.307-.442.255-.5-.229.269-.321.043-.507.105l.439-.7.087.1a2.48,2.48,0,0,1,.437-1.229c.4-.554.8-1.145,1.2-1.739s.842-1.153,1.256-1.7c.047.062-.09.32-.227.577a2.689,2.689,0,0,1,.407-.486c-.3.187.273-.515.075-.34.368-.99,1.429-1.81,1.835-2.629-.077-.117-.638-1.234-1.181-2.381s-1.072-2.319-1.19-2.429a4.757,4.757,0,0,1,.5-.488,2.347,2.347,0,0,0-.715.685l.091.157c-.442.578-.19.057-.657.59-.131-.066.285-.571.663-1.007-.36.373-.785.687-.811.947-.371.322-.092-.155-.534.241A6.969,6.969,0,0,1,45.1,7.733l-.014-.023c-.853.817-.981,1.506-1.718,2.283l.031-.121c-.291.254-.644.917-1.12,1.413.139-.14.322-.216.093.123-.522.589-.735,1.089-1.147,1.5l-.189.532c-.4.55-.976,1.584-1.708,2.813-.678,1.259-1.479,2.738-2.156,4.276a61.531,61.531,0,0,0-2.867,7.54l.011-.109a63.235,63.235,0,0,0-1.96,8.177,48.431,48.431,0,0,0-.709,8.478,16.889,16.889,0,0,0-.176,2.266c.062-.385.157-.253.147.046a22.523,22.523,0,0,0,.231,2.26c.1,1.217.338,4.153.8,7.026.121.717.243,1.431.359,2.117.145.68.283,1.332.409,1.928.229,1.2.52,2.146.627,2.679.485,1.07.846,2.476,1.319,3.517l-.081-.092.659,1.686.49,1.288.6,1.4c.207.472.4.952.613,1.4l.62,1.264a16.943,16.943,0,0,0,.9,1.7l-.069-.18c.718,1.019.442.979.865,1.866.121-.219.779.623,1.015.951l-.05.013c.361.495,1.238,1.568,1.856,2.358l-.124.038a12,12,0,0,1,.986,1.255c.338.462.673.891.858,1.128a24.04,24.04,0,0,0,3.359,4.152l.564,1.111.146.1a8.872,8.872,0,0,0,2.041-1.1c.954-.706,1.768-1.714,1.336-2.836l.114-.059-.314-.309c-.317-.425-.591-.506-.475-.562l.485.536c-.337-.41-.036-.185.154-.086a4.111,4.111,0,0,1-.371-.487c-.106-.043.014.09.051.168a2.8,2.8,0,0,1-.77-.689c-.343-.42.127-.159-.272-.647a67.575,67.575,0,0,1-5.579-8.165c.007-.092.05-.012.117.061-.53-.86-.992-1.631-1.443-2.434a.863.863,0,0,1-.018-.442c-.006.046-.157-.212-.382-.625l-.383-.718-.4-.86c-.267-.591-.544-1.188-.737-1.649s-.3-.787-.3-.809" transform="translate(-13.944 -2.192)" fill="#f8c4a5"/>
    <path id="Tracé_53" data-name="Tracé 53" d="M1.237,41.962a2.555,2.555,0,0,0,1.021,0,2.177,2.177,0,0,0-1.021,0" transform="translate(-0.548 -18.566)" fill="#f8c4a5"/>
    <path id="Tracé_54" data-name="Tracé 54" d="M3.078,42.013l.006,0H3.07Z" transform="translate(-1.36 -18.613)" fill="#f8c4a5"/>
    <path id="Tracé_55" data-name="Tracé 55" d="M86.322,58.4l-.332-.37c.106.124.218.254.332.37" transform="translate(-38.099 -25.709)" fill="#f8c4a5"/>
    <path id="Tracé_56" data-name="Tracé 56" d="M18.807,17.659l-.056-.223c.76-.421.343.1,1.021-.333.123-.427,1.189-.613,1.341-.9.007.025.35-.164.378-.066.018-.208.328-.237.52-.4.053-.086-.082-.011-.166-.022l.457-.337c.219-.064.318-.005.12.132.654-.346,2.509-1.41,4.327-2.538.9-.568,1.808-1.141,2.554-1.639l.53-.356.2-.138v-.028c-.044-.125-.023-.035-.131-.207-.018-.125.059.008.033-.119.091.3.095.022.113.38l0-.21v.126c.079-.269.041-.133.06-.1.014-.021.1-.19.141-.254s.063-.079.031,0a1.317,1.317,0,0,1,.123-.229c-.124.221.094-.066-.031.155.017,0,.013.119.184-.131-.084.139-.111.26-.194.292,0,.032-.027.077.016.06l.047-.081c.039.093-.1.208.087.2.024-.023.047-.049.07-.077a.149.149,0,0,1,.011.106c0,.031-.028.005-.039.079a.47.47,0,0,1-.074.2c-.025-.067-.063-.192-.078-.213l-.035-.017c.026.107.049.2.07.3l.123.477a9.2,9.2,0,0,0,.3.908l-.047-.241c.091.2.246.627.442,1.153s.409,1.164.665,1.778a15.8,15.8,0,0,0,1.295,2.749l.024-.392c.114.2.238.386.361.576-.027-.073-.6-.116-.573-.2.268.666,1.106,2.735,2.071,4.693.951,1.968,1.954,3.87,2.216,4.461.169.5-.177.2-.2.207.352.534.277.163.52.647.045.144-.123.032-.182-.031.127.2.186.417.259.4-.091-.286.14-.27.192-.44l.317.614-.123.032c.071.137.485.18.752.806.508,1.024,1.153,2.081,1.691,3.086-.073.021-.229-.166-.385-.354a1.838,1.838,0,0,1,.227.478c-.009-.162.076-.05.164.082.11.16.207.3.14.151.508.53.967.982,1.369,1.364a4.546,4.546,0,0,0,1.1.845c.115-.08,1.138-.75,2.215-1.359a14.273,14.273,0,0,1,1.567-.767c.464-.185.81-.308.872-.358a4.362,4.362,0,0,1,.559.761,1.621,1.621,0,0,0-.286-.508c-.076-.1-.163-.2-.25-.3a2.583,2.583,0,0,0-.232-.215l-.165.078c-.576-.469-.065-.215-.57-.656.069-.122.527.214,1.013.717-.415-.472-.7-.845-.95-.86-.281-.318.143-.108-.194-.473-.292-.192-.692-.34-.857-.6l.021-.015a1.275,1.275,0,0,0-.657-.506c-.022-.048-.067-.148-.094-.229l.084.052c-.068-.287-.438-.717-.613-1.2.047.141.02.3-.146.043-.21-.554-.48-.856-.592-1.282l-.321-.289c-.476-.892-1.728-3.055-2.858-5.233s-2.134-4.385-2.483-5.293l.049.063a39.929,39.929,0,0,1-1.855-5.628l-.19-.806c-.032-.145-.062-.244-.1-.425q-.059-.417-.118-.83-.118-.823-.233-1.627c-.038-.267-.076-.531-.114-.793q-.03-.42-.06-.833c-.08-1.078-.157-2.109-.228-3.07-.072-.9-.139-1.735-.2-2.481l-.065.039A1.605,1.605,0,0,0,34.6.283c-.2.121-.426.262-.651.41l-1.3.862c.42-.222.218.035-.116.26-2.371,1.622-.2.257-2.571,1.962-.674.5-1.827,1.326-3.191,2.246-.78.535-1.7,1.133-2.628,1.717-1.847,1.168-3.71,2.227-4.43,2.591a26.512,26.512,0,0,1-2.325,1.54l.051-.082c-.377.254-1.71.961-3.079,1.612l-3.235,1.48.139-.028c-.784.468-.754.226-1.436.431.172.176-.5.57-.774.692l-.007-.05c-.2.1-.52.282-.875.479a11.066,11.066,0,0,1-1.1.5l-.011-.126a5.9,5.9,0,0,1-1.082.449l-1,.278c-.49.112-1.12.226-1.791.322a20.182,20.182,0,0,0-2.012.442l-.9-.206-.118.055A14.124,14.124,0,0,0,0,20.419c.032,1.183.288,2.452,1.341,2.733l-.012.127.385-.081c.475-.018.664-.2.655-.069l-.639.092c.473-.043.159.076-.009.175a3.411,3.411,0,0,1,.553-.028c.084-.062-.077-.038-.155-.053a3.136,3.136,0,0,1,.887-.263c.475-.095.07.189.626.078a41.176,41.176,0,0,0,8.52-2.423c.082.022.007.051-.066.1.81-.394,1.548-.7,2.277-1.068a.714.714,0,0,1,.4.015,16.161,16.161,0,0,1,1.953-1.029L18.128,18c.392-.2.662-.334.679-.339" transform="translate(0)" fill="#f8c4a5"/>
  </g>
</svg>
