<svg xmlns="http://www.w3.org/2000/svg" xmlns:xlink="http://www.w3.org/1999/xlink" width="47" height="47" viewBox="0 0 47 47">
  <defs>
    <clipPath id="clip-path">
      <rect id="Rectangle_4" data-name="Rectangle 4" width="16.975" height="20.379" fill="#f7bc99"/>
    </clipPath>
  </defs>
  <g id="Groupe_5" data-name="Groupe 5" transform="translate(-744 -142)">
    <rect id="Rectangle_3" data-name="Rectangle 3" width="42" height="42" rx="9" transform="translate(749 147)" fill="#f7bc99"/>
    <rect id="Rectangle_2" data-name="Rectangle 2" width="42" height="42" rx="9" transform="translate(744 142)" fill="#fff0e6"/>
    <g id="Groupe_2" data-name="Groupe 2" transform="translate(756.991 152.591)">
      <g id="Groupe_1" data-name="Groupe 1" transform="translate(0 0)" clip-path="url(#clip-path)">
        <path id="Tracé_3" data-name="Tracé 3" d="M8.488,21.578a8.488,8.488,0,0,1,0-16.975,1.479,1.479,0,0,1,0,2.958,5.53,5.53,0,1,0,5.53,5.53,1.479,1.479,0,1,1,2.958,0,8.5,8.5,0,0,1-8.488,8.488" transform="translate(0 -1.199)" fill="#f7bc99"/>
        <path id="Tracé_4" data-name="Tracé 4" d="M8.416,11.01a1.482,1.482,0,0,1-1.446-1.8l.907-4.045L2.51,2.835A1.479,1.479,0,0,1,3.686.122l6.489,2.815a1.479,1.479,0,0,1,.854,1.68L9.857,9.855A1.48,1.48,0,0,1,8.416,11.01" transform="translate(-0.422 0)" fill="#f7bc99"/>
      </g>
    </g>
  </g>
</svg>
