<svg xmlns="http://www.w3.org/2000/svg" width="47" height="47" viewBox="0 0 47 47">
  <g id="Groupe_3" data-name="Groupe 3" transform="translate(-546 -142)">
    <rect id="Rectangle_3" data-name="Rectangle 3" width="42" height="42" rx="9" transform="translate(551 147)" fill="#f7bc99"/>
    <rect id="Rectangle_2" data-name="Rectangle 2" width="42" height="42" rx="9" transform="translate(546 142)" fill="#fff0e6"/>
    <g id="Polygone_1" data-name="Polygone 1" transform="translate(576.577 152) rotate(90)" fill="none" stroke-linecap="round">
      <path d="M8.936,3.02a2,2,0,0,1,3.469,0l7.215,12.561a2,2,0,0,1-1.734,3H3.455a2,2,0,0,1-1.734-3Z" stroke="none"/>
      <path d="M 10.66986274719238 7.027332305908203 L 6.046501159667969 15.07690715789795 L 15.29322624206543 15.07690715789795 L 10.66986274719238 7.027332305908203 M 10.66986083984375 2.015617370605469 C 11.34480857849121 2.015617370605469 12.01975536346436 2.350246429443359 12.40415096282959 3.019506454467773 L 19.61887168884277 15.58079719543457 C 20.38468170166016 16.91411781311035 19.42218017578125 18.57690811157227 17.88458061218262 18.57690811157227 L 3.455141067504883 18.57690811157227 C 1.917530059814453 18.57690811157227 0.9550399780273438 16.91411781311035 1.720849990844727 15.58079719543457 L 8.93557071685791 3.019506454467773 C 9.319966316223145 2.350246429443359 9.994913101196289 2.015617370605469 10.66986083984375 2.015617370605469 Z" stroke="none" fill="#f7bc99"/>
    </g>
  </g>
</svg>
